<?xml version="1.0" encoding="utf-8"?>
<!-- Generator: $$$/GeneralStr/196=Adobe Illustrator 27.6.0, SVG Export Plug-In . SVG Version: 6.00 Build 0)  -->
<svg version="1.2" baseProfile="tiny" id="Ebene_1" xmlns="http://www.w3.org/2000/svg" xmlns:xlink="http://www.w3.org/1999/xlink"
	 x="0px" y="0px" viewBox="0 0 595.3 841.9" overflow="visible" xml:space="preserve">
<g>
	
		<text transform="matrix(1 0 0 1 -346.6753 486.319)" fill="none" stroke="#020203" stroke-miterlimit="10" font-family="'Kanit-BoldItalic'" font-size="229.8753px">L</text>
	
		<text transform="matrix(1 0 0 1 -235.9443 486.319)" fill="none" stroke="#020203" stroke-miterlimit="10" font-family="'Kanit-BoldItalic'" font-size="229.8753px">A</text>
	
		<text transform="matrix(1 0 0 1 -81.354 486.319)" fill="none" stroke="#020203" stroke-miterlimit="10" font-family="'Kanit-BoldItalic'" font-size="229.8753px">R</text>
	
		<text transform="matrix(1 0 0 1 49.8115 486.319)" fill="none" stroke="#020203" stroke-miterlimit="10" font-family="'Kanit-BoldItalic'" font-size="229.8753px">A</text>
	
		<text transform="matrix(1 0 0 1 186.5864 486.319)" fill="none" stroke="#020203" stroke-miterlimit="10" font-family="'Kanit-BoldItalic'" font-size="229.8753px">V</text>
	
		<text transform="matrix(1 0 0 1 341.5444 486.319)" fill="none" stroke="#020203" stroke-miterlimit="10" font-family="'Kanit-BoldItalic'" font-size="229.8753px">E</text>
	
		<text transform="matrix(1 0 0 1 462.2974 486.319)" fill="none" stroke="#020203" stroke-miterlimit="10" font-family="'Kanit-BoldItalic'" font-size="229.8753px">R</text>
	
		<text transform="matrix(1 0 0 1 597.7622 486.319)" fill="none" stroke="#020203" stroke-miterlimit="10" font-family="'Kanit-BoldItalic'" font-size="229.8753px">S</text>
	
		<text transform="matrix(1 0 0 1 716.5142 486.319)" fill="none" stroke="#020203" stroke-miterlimit="10" font-family="'Kanit-BoldItalic'" font-size="229.8753px">E</text>
	<g>
		<linearGradient id="SVGID_1_" gradientUnits="userSpaceOnUse" x1="-340.4567" y1="348.304" x2="-221.3864" y2="615.7402">
			<stop  offset="0.7948" style="stop-color:#DEDEDE"/>
			<stop  offset="0.8011" style="stop-color:#D4D4D4"/>
			<stop  offset="0.8186" style="stop-color:#BFBEBE"/>
			<stop  offset="0.8392" style="stop-color:#AEADAD"/>
			<stop  offset="0.8647" style="stop-color:#A3A2A2"/>
			<stop  offset="0.9006" style="stop-color:#9C9B9B"/>
			<stop  offset="1" style="stop-color:#9A9999"/>
		</linearGradient>
		<path fill="url(#SVGID_1_)" d="M-317.9,338.3h43.2l-24.4,114.9h66.7l-6.9,33.1h-109.9L-317.9,338.3z"/>
		
			<linearGradient id="SVGID_00000139998655806043952550000013502306718396905102_" gradientUnits="userSpaceOnUse" x1="-227.1333" y1="297.8491" x2="-108.063" y2="565.2854">
			<stop  offset="0.7948" style="stop-color:#DEDEDE"/>
			<stop  offset="0.8011" style="stop-color:#D4D4D4"/>
			<stop  offset="0.8186" style="stop-color:#BFBEBE"/>
			<stop  offset="0.8392" style="stop-color:#AEADAD"/>
			<stop  offset="0.8647" style="stop-color:#A3A2A2"/>
			<stop  offset="0.9006" style="stop-color:#9C9B9B"/>
			<stop  offset="1" style="stop-color:#9A9999"/>
		</linearGradient>
		<path fill="url(#SVGID_00000139998655806043952550000013502306718396905102_)" d="M-155,338.3h45.7l25.5,148h-45.1l-5.3-31.5
			h-45.1l-18.9,31.5h-45.1L-155,338.3z M-133.9,423.8l-7.4-43.4l-25.7,43.4H-133.9z"/>
		
			<linearGradient id="SVGID_00000158025594096185534250000007962760456650878628_" gradientUnits="userSpaceOnUse" x1="-92.3264" y1="237.8292" x2="26.744" y2="505.2655">
			<stop  offset="0.7948" style="stop-color:#DEDEDE"/>
			<stop  offset="0.8011" style="stop-color:#D4D4D4"/>
			<stop  offset="0.8186" style="stop-color:#BFBEBE"/>
			<stop  offset="0.8392" style="stop-color:#AEADAD"/>
			<stop  offset="0.8647" style="stop-color:#A3A2A2"/>
			<stop  offset="0.9006" style="stop-color:#9C9B9B"/>
			<stop  offset="1" style="stop-color:#9A9999"/>
		</linearGradient>
		<path fill="url(#SVGID_00000158025594096185534250000007962760456650878628_)" d="M-52.6,338.3h77c13.8,0,24.4,3.5,32,10.6
			c7.5,7.1,11.3,16.6,11.3,28.5c0,4.1-0.5,8.7-1.4,13.6c-2.1,9.8-6.5,18.5-13,26.1c-6.5,7.6-14.4,13.4-23.8,17.6
			c1.4,1.2,2.4,2.8,3.2,4.6c0.8,1.8,1.6,4.6,2.5,8.3l9,38.8H-0.9l-8.3-35.6c-0.8-2.8-1.9-4.7-3.3-5.9c-1.5-1.1-3.8-1.7-7-1.7h-12.2
			l-9,43.2h-43.2L-52.6,338.3z M-1.8,410c6.3,0,11.5-1.6,15.6-4.9c4.1-3.3,6.9-8,8.3-14.1c0.6-3.7,0.9-6.1,0.9-7.4
			c0-4-1.2-7-3.6-9.1c-2.4-2.1-6.2-3.1-11.6-3.1h-24.1l-8.3,38.6H-1.8z"/>
		
			<linearGradient id="SVGID_00000096763198136257252770000016978127805071154830_" gradientUnits="userSpaceOnUse" x1="11.3485" y1="191.6702" x2="130.4188" y2="459.1065">
			<stop  offset="0.7948" style="stop-color:#DEDEDE"/>
			<stop  offset="0.8011" style="stop-color:#D4D4D4"/>
			<stop  offset="0.8186" style="stop-color:#BFBEBE"/>
			<stop  offset="0.8392" style="stop-color:#AEADAD"/>
			<stop  offset="0.8647" style="stop-color:#A3A2A2"/>
			<stop  offset="0.9006" style="stop-color:#9C9B9B"/>
			<stop  offset="1" style="stop-color:#9A9999"/>
		</linearGradient>
		<path fill="url(#SVGID_00000096763198136257252770000016978127805071154830_)" d="M130.7,338.3h45.7l25.5,148h-45.1l-5.3-31.5
			h-45.1l-18.8,31.5H42.7L130.7,338.3z M151.9,423.8l-7.4-43.4l-25.7,43.4H151.9z"/>
		
			<linearGradient id="SVGID_00000022561885705260250020000009163277338238102676_" gradientUnits="userSpaceOnUse" x1="172.8825" y1="119.7506" x2="291.9528" y2="387.1869">
			<stop  offset="0.7948" style="stop-color:#DEDEDE"/>
			<stop  offset="0.8011" style="stop-color:#D4D4D4"/>
			<stop  offset="0.8186" style="stop-color:#BFBEBE"/>
			<stop  offset="0.8392" style="stop-color:#AEADAD"/>
			<stop  offset="0.8647" style="stop-color:#A3A2A2"/>
			<stop  offset="0.9006" style="stop-color:#9C9B9B"/>
			<stop  offset="1" style="stop-color:#9A9999"/>
		</linearGradient>
		<path fill="url(#SVGID_00000022561885705260250020000009163277338238102676_)" d="M210.7,338.3h43.7l13.8,97.9l55.2-97.9H370
			l-88,148h-45.7L210.7,338.3z"/>
		
			<linearGradient id="SVGID_00000046329352481777822870000003062572755560502177_" gradientUnits="userSpaceOnUse" x1="262.684" y1="79.7684" x2="381.7543" y2="347.2047">
			<stop  offset="0.7948" style="stop-color:#DEDEDE"/>
			<stop  offset="0.8011" style="stop-color:#D4D4D4"/>
			<stop  offset="0.8186" style="stop-color:#BFBEBE"/>
			<stop  offset="0.8392" style="stop-color:#AEADAD"/>
			<stop  offset="0.8647" style="stop-color:#A3A2A2"/>
			<stop  offset="0.9006" style="stop-color:#9C9B9B"/>
			<stop  offset="1" style="stop-color:#9A9999"/>
		</linearGradient>
		<path fill="url(#SVGID_00000046329352481777822870000003062572755560502177_)" d="M370.3,338.3h112.2l-6.9,33.1h-69l-5.3,24.1
			h60.5l-7.1,33.6h-60.5l-5.1,24.1h69l-6.9,33.1H339L370.3,338.3z"/>
		
			<linearGradient id="SVGID_00000001623808345884507600000009087830037799588015_" gradientUnits="userSpaceOnUse" x1="361.3866" y1="35.8232" x2="480.4569" y2="303.2595">
			<stop  offset="0.7948" style="stop-color:#DEDEDE"/>
			<stop  offset="0.8011" style="stop-color:#D4D4D4"/>
			<stop  offset="0.8186" style="stop-color:#BFBEBE"/>
			<stop  offset="0.8392" style="stop-color:#AEADAD"/>
			<stop  offset="0.8647" style="stop-color:#A3A2A2"/>
			<stop  offset="0.9006" style="stop-color:#9C9B9B"/>
			<stop  offset="1" style="stop-color:#9A9999"/>
		</linearGradient>
		<path fill="url(#SVGID_00000001623808345884507600000009087830037799588015_)" d="M491,338.3h77c13.8,0,24.4,3.5,32,10.6
			c7.5,7.1,11.3,16.6,11.3,28.5c0,4.1-0.5,8.7-1.4,13.6c-2.1,9.8-6.5,18.5-13,26.1c-6.5,7.6-14.4,13.4-23.8,17.6
			c1.4,1.2,2.4,2.8,3.2,4.6c0.8,1.8,1.6,4.6,2.5,8.3l9,38.8h-45.1l-8.3-35.6c-0.8-2.8-1.9-4.7-3.3-5.9c-1.5-1.1-3.8-1.7-7-1.7H512
			l-9,43.2h-43.2L491,338.3z M541.8,410c6.3,0,11.5-1.6,15.6-4.9c4.1-3.3,6.9-8,8.3-14.1c0.6-3.7,0.9-6.1,0.9-7.4c0-4-1.2-7-3.6-9.1
			c-2.4-2.1-6.2-3.1-11.6-3.1h-24.1l-8.3,38.6H541.8z"/>
		
			<linearGradient id="SVGID_00000023249325384603964830000002129651740489371560_" gradientUnits="userSpaceOnUse" x1="472.3803" y1="-13.5944" x2="591.4507" y2="253.8419">
			<stop  offset="0.7948" style="stop-color:#DEDEDE"/>
			<stop  offset="0.8011" style="stop-color:#D4D4D4"/>
			<stop  offset="0.8186" style="stop-color:#BFBEBE"/>
			<stop  offset="0.8392" style="stop-color:#AEADAD"/>
			<stop  offset="0.8647" style="stop-color:#A3A2A2"/>
			<stop  offset="0.9006" style="stop-color:#9C9B9B"/>
			<stop  offset="1" style="stop-color:#9A9999"/>
		</linearGradient>
		<path fill="url(#SVGID_00000023249325384603964830000002129651740489371560_)" d="M615.1,486.2c-8.5-1.6-15.5-3.9-21-6.8l7.6-35.6
			c6.3,3.2,13.4,5.8,21.5,7.8c8,2,15.7,3,22.9,3c8.3,0,14.4-0.7,18.3-2.2c3.9-1.5,6.3-4.3,7.2-8.6c0.2-0.6,0.2-1.4,0.2-2.3
			c0-3.1-1.5-5.4-4.4-7c-2.9-1.6-8.6-3.9-17-6.8l-6.9-2.3c-10.9-3.8-18.9-8.4-24-13.7c-5.1-5.3-7.7-12.1-7.7-20.3
			c0-4,0.4-7.6,1.1-10.8c3.2-14.9,10.6-26,22.1-33.4c11.5-7.4,27.9-11.1,49.2-11.1c7.8,0,15.9,0.7,24.3,2c8.4,1.3,15.1,2.9,20.3,4.7
			l-7.6,35.9c-12.3-5.4-24.8-8-37.5-8c-8.1,0-14.4,0.6-18.7,1.8c-4.4,1.2-7,3.9-7.9,8c-0.2,0.5-0.2,1.1-0.2,2.1c0,2.6,1.3,4.6,4,6
			c2.7,1.4,8.1,3.3,16.2,5.7l4.6,1.4c12.9,3.8,22,8.6,27.5,14.4c5.4,5.7,8.2,12.8,8.2,21c0,3.2-0.5,7.5-1.6,12.9
			c-3.1,14.4-10.2,25.5-21.5,33.2c-11.3,7.7-28.3,11.6-51.1,11.6C632.9,488.6,623.6,487.8,615.1,486.2z"/>
		
			<linearGradient id="SVGID_00000057831563957294755370000011642230113924997277_" gradientUnits="userSpaceOnUse" x1="575.6216" y1="-59.5604" x2="694.6919" y2="207.8759">
			<stop  offset="0.7948" style="stop-color:#DEDEDE"/>
			<stop  offset="0.8011" style="stop-color:#D4D4D4"/>
			<stop  offset="0.8186" style="stop-color:#BFBEBE"/>
			<stop  offset="0.8392" style="stop-color:#AEADAD"/>
			<stop  offset="0.8647" style="stop-color:#A3A2A2"/>
			<stop  offset="0.9006" style="stop-color:#9C9B9B"/>
			<stop  offset="1" style="stop-color:#9A9999"/>
		</linearGradient>
		<path fill="url(#SVGID_00000057831563957294755370000011642230113924997277_)" d="M745.2,338.3h112.2l-6.9,33.1h-69l-5.3,24.1
			h60.5l-7.1,33.6h-60.5l-5.1,24.1h69l-6.9,33.1H714L745.2,338.3z"/>
	</g>
</g>
<path id="Star_00000108277047867745462820000016194312931061304740_" fill="#FFFFFF" d="M871.4,313.3l-27.6,2.1l27.6,2.1
	c7.6,0.6,13.6,6.6,14.1,14.1l2.1,27.6l2.1-27.6c0.6-7.6,6.6-13.6,14.1-14.1l27.6-2.1l-27.6-2.1c-7.6-0.6-13.6-6.6-14.1-14.1
	l-2.1-27.6l-2.1,27.6C885,306.7,879,312.7,871.4,313.3z"/>
<path fill="#020203" d="M318.4,278.4c0.2-0.4,0.3-0.7,0.5-1.1c0-0.8-0.1-1.6-0.2-2.4c0,0.1-0.1,0.3-0.1,0.4
	C318.5,276.4,318.4,277.4,318.4,278.4z"/>
<path fill="#020203" d="M156.6,485.9c4.6,0.4,9.2,0.7,13.8,0.9c1.2-1.2,2.4-2.4,3.5-3.6c7.7-7.8,15.6-16,23.6-24.6
	c-0.4-1.9-0.6-3.7-0.5-5.5c-1.3-4.6-2.4-9.4-2.8-14c-3.5,3.8-6.9,7.6-10.5,11.4c-9.3,9.9-18.7,19.6-28.2,29
	C156.3,481.4,156.5,483.6,156.6,485.9z"/>
<path fill="#020203" d="M259.4,368.3c-0.9-1.2-1.2-2.8-0.9-4.3c-0.3-0.4-0.6-0.9-0.8-1.3c-10.6,14.3-22.3,29.1-35,44
	c0.2,0.6,0.4,1.3,0.3,2c-0.2,6.3,1.1,12.4,2.5,18.4c4.7-5.5,9.4-11.1,14.1-16.9c7.6-9.2,14.8-18.4,21.7-27.4
	C259.6,378.8,259.4,373.5,259.4,368.3z"/>
<path id="Planet_00000168113557489349825320000018311806923425531024_" fill="#E73A35" d="M304.7,338.7c4.3-6.7,8.4-13.3,12.1-19.8
	c25.4-43.7,32.8-73.8,21-84.9c-8.1-7.6-24.4-5.8-47.1,5.1c-22.6,10.8-50.9,30.4-82,56.6l0.2,0.3c0.2-0.2,23.8-17,49.1-31.7
	c23.3-13.5,52.8-27.8,61.4-19.4c9.6,9.5,1.8,36.4-22.1,75.8c-23.9,39.5-61.2,87-105,133.7c-37.9,40.3-77.8,76.9-112.4,103
	C45.8,583,18.3,597.5,2.5,597.9c-4.8,0.1-8.6-1-11.1-3.4c-14.8-14,16.4-73.6,16.7-74.2l-0.3-0.2c-14.2,23.3-23.8,43.3-28.4,59.3
	c-4.8,16.6-4,28.1,2.3,34.1c2.7,2.5,6.2,4,10.6,4.4c15.1,1.5,40.2-9,72.7-30.8c35.3-23.6,77.1-59.4,117.4-100.1
	c21.1-21.4,43.3-45.6,65.7-72.9C269.6,388.1,288.4,362.7,304.7,338.7z"/>
</svg>
